<svg xmlns="http://www.w3.org/2000/svg" xmlns:xlink="http://www.w3.org/1999/xlink" width="500" zoomAndPan="magnify" viewBox="0 0 375 374.999991" height="500" preserveAspectRatio="xMidYMid meet" version="1.0"><defs><clipPath id="1a7700a420"><path d="M 22 363 L 353.34375 363 L 353.34375 374.882812 L 22 374.882812 Z M 22 363 " clip-rule="nonzero"/></clipPath><clipPath id="b9f75ccfc9"><path d="M 271 7.382812 L 284 7.382812 L 284 94 L 271 94 Z M 271 7.382812 " clip-rule="nonzero"/></clipPath></defs><rect x="-37.5" width="450" fill="#ffffff" y="-37.499999" height="449.999989" fill-opacity="1"/><rect x="-37.5" width="450" fill="#ffffff" y="-37.499999" height="449.999989" fill-opacity="1"/><g clip-path="url(#1a7700a420)"><path fill="#016407" d="M 353.3125 368.859375 C 353.3125 369.238281 353.277344 369.613281 353.203125 369.984375 C 353.128906 370.355469 353.019531 370.71875 352.875 371.066406 C 352.730469 371.417969 352.554688 371.75 352.34375 372.0625 C 352.132812 372.378906 351.894531 372.667969 351.625 372.9375 C 351.359375 373.207031 351.066406 373.445312 350.75 373.65625 C 350.4375 373.863281 350.105469 374.042969 349.753906 374.1875 C 349.402344 374.332031 349.042969 374.441406 348.671875 374.515625 C 348.300781 374.585938 347.925781 374.625 347.546875 374.625 L 27.898438 374.625 C 27.519531 374.625 27.140625 374.59375 26.765625 374.519531 C 26.394531 374.449219 26.03125 374.339844 25.675781 374.199219 C 25.324219 374.054688 24.988281 373.878906 24.671875 373.667969 C 24.355469 373.457031 24.0625 373.21875 23.789062 372.953125 C 23.519531 372.683594 23.28125 372.390625 23.066406 372.074219 C 22.855469 371.761719 22.675781 371.425781 22.527344 371.074219 C 22.382812 370.726562 22.273438 370.363281 22.199219 369.988281 C 22.121094 369.617188 22.085938 369.238281 22.085938 368.859375 C 22.085938 368.480469 22.121094 368.101562 22.199219 367.730469 C 22.273438 367.355469 22.382812 366.996094 22.527344 366.644531 C 22.675781 366.292969 22.855469 365.960938 23.066406 365.644531 C 23.28125 365.328125 23.519531 365.035156 23.789062 364.769531 C 24.0625 364.5 24.355469 364.261719 24.671875 364.050781 C 24.988281 363.84375 25.324219 363.664062 25.675781 363.523438 C 26.03125 363.378906 26.394531 363.269531 26.765625 363.199219 C 27.140625 363.128906 27.519531 363.09375 27.898438 363.097656 L 347.546875 363.097656 C 347.925781 363.097656 348.300781 363.132812 348.671875 363.207031 C 349.042969 363.28125 349.402344 363.390625 349.753906 363.535156 C 350.101562 363.679688 350.4375 363.855469 350.75 364.066406 C 351.066406 364.277344 351.355469 364.515625 351.625 364.785156 C 351.890625 365.050781 352.132812 365.34375 352.34375 365.65625 C 352.550781 365.972656 352.730469 366.304688 352.875 366.65625 C 353.019531 367.003906 353.128906 367.363281 353.203125 367.734375 C 353.277344 368.105469 353.3125 368.480469 353.3125 368.859375 Z M 353.3125 368.859375 " fill-opacity="1" fill-rule="nonzero"/></g><path fill="#016407" d="M 117.421875 366.039062 L 45.679688 366.039062 C 45.289062 366.039062 44.914062 365.964844 44.550781 365.816406 C 44.191406 365.667969 43.875 365.453125 43.597656 365.179688 C 43.320312 364.902344 43.109375 364.582031 42.957031 364.222656 C 42.808594 363.863281 42.734375 363.488281 42.734375 363.097656 L 42.734375 345.804688 C 42.734375 345.226562 42.765625 344.648438 42.820312 344.070312 C 42.878906 343.492188 42.964844 342.921875 43.078125 342.351562 C 43.191406 341.78125 43.332031 341.222656 43.503906 340.667969 C 43.671875 340.113281 43.867188 339.566406 44.089844 339.03125 C 44.3125 338.496094 44.558594 337.972656 44.832031 337.460938 C 45.105469 336.949219 45.40625 336.453125 45.726562 335.96875 C 46.050781 335.488281 46.394531 335.023438 46.765625 334.574219 C 47.132812 334.125 47.523438 333.699219 47.933594 333.289062 C 48.34375 332.878906 48.773438 332.488281 49.21875 332.121094 C 49.667969 331.753906 50.136719 331.40625 50.617188 331.085938 C 51.101562 330.761719 51.597656 330.464844 52.109375 330.191406 C 52.621094 329.917969 53.144531 329.671875 53.679688 329.449219 C 54.214844 329.226562 54.761719 329.03125 55.316406 328.859375 C 55.871094 328.691406 56.433594 328.550781 57.003906 328.4375 C 57.574219 328.324219 58.144531 328.238281 58.722656 328.179688 C 59.300781 328.125 59.878906 328.09375 60.460938 328.09375 L 102.640625 328.09375 C 103.222656 328.09375 103.800781 328.121094 104.378906 328.175781 C 104.957031 328.234375 105.53125 328.316406 106.101562 328.429688 C 106.671875 328.542969 107.234375 328.683594 107.789062 328.851562 C 108.34375 329.019531 108.890625 329.214844 109.429688 329.4375 C 109.964844 329.660156 110.488281 329.90625 111 330.179688 C 111.515625 330.453125 112.011719 330.75 112.496094 331.074219 C 112.976562 331.394531 113.441406 331.738281 113.890625 332.109375 C 114.339844 332.476562 114.769531 332.863281 115.183594 333.273438 C 115.59375 333.6875 115.980469 334.113281 116.351562 334.5625 C 116.71875 335.011719 117.0625 335.476562 117.386719 335.960938 C 117.710938 336.441406 118.007812 336.941406 118.28125 337.453125 C 118.554688 337.964844 118.800781 338.488281 119.023438 339.023438 C 119.246094 339.558594 119.441406 340.105469 119.609375 340.660156 C 119.777344 341.21875 119.917969 341.78125 120.03125 342.347656 C 120.144531 342.917969 120.226562 343.492188 120.285156 344.070312 C 120.339844 344.644531 120.367188 345.226562 120.367188 345.804688 L 120.367188 363.097656 C 120.367188 363.488281 120.292969 363.863281 120.144531 364.222656 C 119.992188 364.582031 119.78125 364.902344 119.503906 365.179688 C 119.230469 365.453125 118.910156 365.667969 118.550781 365.816406 C 118.1875 365.964844 117.8125 366.039062 117.421875 366.039062 Z M 48.625 360.152344 L 114.476562 360.152344 L 114.476562 345.804688 C 114.472656 345.175781 114.421875 344.546875 114.316406 343.925781 C 114.214844 343.300781 114.0625 342.691406 113.863281 342.09375 C 113.664062 341.496094 113.417969 340.914062 113.125 340.355469 C 112.832031 339.796875 112.5 339.265625 112.121094 338.757812 C 111.746094 338.25 111.332031 337.777344 110.878906 337.335938 C 110.425781 336.894531 109.945312 336.492188 109.425781 336.128906 C 108.910156 335.765625 108.371094 335.445312 107.804688 335.167969 C 107.234375 334.890625 106.648438 334.660156 106.046875 334.472656 C 104.9375 334.140625 103.800781 333.976562 102.640625 333.980469 L 60.460938 333.980469 C 59.683594 333.980469 58.914062 334.058594 58.152344 334.207031 C 57.390625 334.359375 56.652344 334.585938 55.933594 334.882812 C 55.214844 335.179688 54.535156 335.546875 53.886719 335.976562 C 53.242188 336.40625 52.644531 336.898438 52.097656 337.445312 C 51.546875 337.996094 51.054688 338.59375 50.625 339.238281 C 50.191406 339.882812 49.828125 340.566406 49.53125 341.28125 C 49.230469 342 49.007812 342.738281 48.855469 343.5 C 48.703125 344.261719 48.625 345.027344 48.625 345.804688 Z M 48.625 360.152344 " fill-opacity="1" fill-rule="nonzero"/><path fill="#016407" d="M 189.164062 366.039062 L 117.421875 366.039062 C 117.03125 366.039062 116.65625 365.964844 116.292969 365.816406 C 115.933594 365.667969 115.617188 365.453125 115.339844 365.179688 C 115.0625 364.902344 114.851562 364.582031 114.699219 364.222656 C 114.550781 363.863281 114.476562 363.488281 114.476562 363.097656 L 114.476562 313.75 C 114.476562 313.167969 114.507812 312.589844 114.5625 312.011719 C 114.621094 311.4375 114.707031 310.863281 114.820312 310.292969 C 114.933594 309.726562 115.074219 309.164062 115.246094 308.609375 C 115.414062 308.054688 115.609375 307.507812 115.832031 306.972656 C 116.054688 306.4375 116.300781 305.914062 116.574219 305.402344 C 116.847656 304.890625 117.148438 304.394531 117.46875 303.914062 C 117.792969 303.429688 118.136719 302.964844 118.507812 302.519531 C 118.875 302.070312 119.265625 301.640625 119.675781 301.230469 C 120.085938 300.820312 120.515625 300.429688 120.964844 300.0625 C 121.410156 299.695312 121.878906 299.351562 122.359375 299.027344 C 122.84375 298.707031 123.339844 298.40625 123.851562 298.132812 C 124.363281 297.859375 124.886719 297.613281 125.421875 297.390625 C 125.957031 297.167969 126.503906 296.972656 127.058594 296.804688 C 127.613281 296.636719 128.175781 296.496094 128.746094 296.378906 C 129.316406 296.265625 129.886719 296.179688 130.464844 296.125 C 131.042969 296.066406 131.621094 296.039062 132.203125 296.035156 L 174.382812 296.035156 C 176.117188 296.035156 177.8125 296.28125 179.472656 296.78125 C 180.378906 297.054688 181.253906 297.402344 182.105469 297.816406 C 182.957031 298.230469 183.769531 298.710938 184.542969 299.253906 C 185.316406 299.796875 186.042969 300.398438 186.722656 301.058594 C 187.398438 301.71875 188.019531 302.429688 188.585938 303.1875 C 189.152344 303.945312 189.652344 304.742188 190.089844 305.582031 C 190.527344 306.421875 190.894531 307.289062 191.195312 308.183594 C 191.496094 309.082031 191.722656 309.996094 191.875 310.929688 C 192.027344 311.863281 192.105469 312.804688 192.109375 313.75 L 192.109375 363.097656 C 192.109375 363.488281 192.035156 363.863281 191.886719 364.222656 C 191.734375 364.582031 191.523438 364.902344 191.246094 365.179688 C 190.972656 365.453125 190.652344 365.667969 190.292969 365.816406 C 189.929688 365.964844 189.554688 366.039062 189.164062 366.039062 Z M 120.367188 360.152344 L 186.21875 360.152344 L 186.21875 313.75 C 186.214844 313.117188 186.164062 312.488281 186.0625 311.867188 C 185.960938 311.242188 185.808594 310.632812 185.609375 310.035156 C 185.410156 309.433594 185.164062 308.855469 184.871094 308.296875 C 184.578125 307.734375 184.242188 307.203125 183.867188 306.695312 C 183.488281 306.191406 183.074219 305.714844 182.621094 305.277344 C 182.167969 304.835938 181.683594 304.433594 181.167969 304.070312 C 180.648438 303.707031 180.105469 303.386719 179.539062 303.109375 C 178.972656 302.832031 178.386719 302.601562 177.78125 302.417969 C 176.671875 302.085938 175.539062 301.921875 174.382812 301.921875 L 132.203125 301.921875 C 131.425781 301.925781 130.65625 302 129.894531 302.152344 C 129.132812 302.304688 128.394531 302.53125 127.675781 302.828125 C 126.957031 303.125 126.277344 303.488281 125.632812 303.921875 C 124.984375 304.351562 124.386719 304.839844 123.839844 305.390625 C 123.289062 305.9375 122.796875 306.535156 122.367188 307.183594 C 121.933594 307.828125 121.570312 308.507812 121.273438 309.226562 C 120.972656 309.941406 120.75 310.679688 120.597656 311.441406 C 120.445312 312.203125 120.367188 312.972656 120.367188 313.75 Z M 120.367188 360.152344 " fill-opacity="1" fill-rule="nonzero"/><path fill="#016407" d="M 260.90625 366.039062 L 189.164062 366.039062 C 188.773438 366.039062 188.398438 365.964844 188.035156 365.816406 C 187.675781 365.667969 187.355469 365.453125 187.082031 365.179688 C 186.804688 364.902344 186.59375 364.582031 186.441406 364.222656 C 186.292969 363.863281 186.21875 363.488281 186.21875 363.097656 L 186.21875 280.25 C 186.21875 279.667969 186.25 279.089844 186.304688 278.515625 C 186.363281 277.9375 186.449219 277.363281 186.5625 276.796875 C 186.675781 276.226562 186.816406 275.664062 186.988281 275.109375 C 187.15625 274.554688 187.351562 274.011719 187.574219 273.472656 C 187.796875 272.9375 188.042969 272.414062 188.316406 271.902344 C 188.589844 271.394531 188.890625 270.894531 189.210938 270.414062 C 189.535156 269.933594 189.878906 269.46875 190.25 269.019531 C 190.617188 268.570312 191.007812 268.140625 191.417969 267.730469 C 191.828125 267.320312 192.257812 266.933594 192.707031 266.5625 C 193.152344 266.195312 193.621094 265.851562 194.101562 265.527344 C 194.585938 265.207031 195.082031 264.910156 195.59375 264.636719 C 196.105469 264.363281 196.628906 264.113281 197.164062 263.890625 C 197.699219 263.667969 198.246094 263.472656 198.800781 263.304688 C 199.355469 263.136719 199.917969 262.996094 200.488281 262.882812 C 201.058594 262.769531 201.632812 262.683594 202.207031 262.625 C 202.785156 262.566406 203.363281 262.539062 203.945312 262.539062 L 246.125 262.539062 C 246.707031 262.535156 247.285156 262.566406 247.863281 262.621094 C 248.441406 262.675781 249.015625 262.761719 249.585938 262.875 C 250.15625 262.988281 250.71875 263.128906 251.273438 263.296875 C 251.828125 263.464844 252.375 263.65625 252.914062 263.878906 C 253.449219 264.101562 253.972656 264.347656 254.488281 264.621094 C 255 264.894531 255.496094 265.195312 255.980469 265.515625 C 256.460938 265.839844 256.929688 266.183594 257.378906 266.550781 C 257.828125 266.917969 258.257812 267.308594 258.667969 267.71875 C 259.078125 268.128906 259.46875 268.558594 259.835938 269.007812 C 260.203125 269.457031 260.550781 269.921875 260.871094 270.402344 C 261.195312 270.886719 261.492188 271.382812 261.765625 271.894531 C 262.039062 272.40625 262.285156 272.929688 262.507812 273.46875 C 262.730469 274.003906 262.925781 274.550781 263.09375 275.105469 C 263.261719 275.660156 263.402344 276.222656 263.515625 276.792969 C 263.628906 277.363281 263.710938 277.933594 263.769531 278.511719 C 263.824219 279.089844 263.851562 279.667969 263.851562 280.25 L 263.851562 363.097656 C 263.851562 363.488281 263.777344 363.863281 263.628906 364.222656 C 263.476562 364.582031 263.265625 364.902344 262.988281 365.179688 C 262.714844 365.453125 262.394531 365.667969 262.035156 365.816406 C 261.671875 365.964844 261.296875 366.039062 260.90625 366.039062 Z M 192.109375 360.152344 L 257.960938 360.152344 L 257.960938 280.25 C 257.957031 279.617188 257.90625 278.992188 257.800781 278.367188 C 257.699219 277.746094 257.546875 277.136719 257.347656 276.535156 C 257.148438 275.9375 256.902344 275.359375 256.609375 274.800781 C 256.316406 274.242188 255.984375 273.707031 255.605469 273.199219 C 255.230469 272.695312 254.816406 272.222656 254.363281 271.78125 C 253.910156 271.339844 253.429688 270.9375 252.910156 270.574219 C 252.394531 270.210938 251.855469 269.890625 251.285156 269.613281 C 250.71875 269.335938 250.132812 269.101562 249.53125 268.917969 C 248.421875 268.585938 247.285156 268.421875 246.125 268.421875 L 203.945312 268.421875 C 203.167969 268.425781 202.398438 268.5 201.636719 268.652344 C 200.875 268.804688 200.136719 269.03125 199.417969 269.328125 C 198.699219 269.625 198.019531 269.988281 197.375 270.421875 C 196.726562 270.851562 196.128906 271.34375 195.582031 271.890625 C 195.03125 272.441406 194.539062 273.035156 194.109375 273.683594 C 193.675781 274.328125 193.3125 275.007812 193.015625 275.726562 C 192.714844 276.441406 192.492188 277.179688 192.339844 277.941406 C 192.1875 278.703125 192.109375 279.472656 192.109375 280.25 Z M 192.109375 360.152344 " fill-opacity="1" fill-rule="nonzero"/><path fill="#016407" d="M 166.089844 301.921875 L 151.671875 301.921875 C 151.417969 301.921875 151.171875 301.890625 150.925781 301.828125 C 150.679688 301.761719 150.449219 301.671875 150.230469 301.546875 C 150.007812 301.421875 149.808594 301.273438 149.625 301.097656 C 149.445312 300.925781 149.289062 300.730469 149.15625 300.511719 C 149.023438 300.296875 148.921875 300.070312 148.851562 299.828125 C 148.777344 299.585938 148.734375 299.339844 148.726562 299.089844 C 148.71875 298.835938 148.742188 298.585938 148.796875 298.339844 C 148.851562 298.09375 148.933594 297.859375 149.050781 297.636719 L 175.761719 245.679688 L 175.761719 199.203125 C 175.761719 198.597656 175.933594 198.046875 176.273438 197.550781 C 176.613281 197.050781 177.0625 196.6875 177.625 196.464844 L 217.640625 180.617188 C 218.136719 180.421875 218.652344 180.363281 219.179688 180.445312 C 219.710938 180.527344 220.179688 180.738281 220.59375 181.078125 C 221.007812 181.417969 221.308594 181.839844 221.492188 182.339844 C 221.675781 182.84375 221.71875 183.355469 221.625 183.882812 L 210.085938 246.917969 C 210 247.394531 209.808594 247.820312 209.511719 248.199219 L 168.414062 300.792969 C 168.132812 301.148438 167.789062 301.425781 167.382812 301.625 C 166.976562 301.824219 166.542969 301.921875 166.089844 301.921875 Z M 156.496094 296.035156 L 164.652344 296.035156 L 204.421875 245.148438 L 214.871094 188.042969 L 181.65625 201.199219 L 181.65625 246.390625 C 181.65625 246.863281 181.546875 247.3125 181.328125 247.734375 Z M 178.710938 246.390625 Z M 178.710938 246.390625 " fill-opacity="1" fill-rule="nonzero"/><path fill="#016407" d="M 239.277344 268.425781 L 226.65625 268.425781 C 226.277344 268.425781 225.910156 268.351562 225.558594 268.210938 C 225.207031 268.070312 224.894531 267.867188 224.617188 267.605469 C 224.34375 267.34375 224.128906 267.039062 223.972656 266.691406 C 223.816406 266.347656 223.730469 265.984375 223.714844 265.605469 L 222.160156 228.628906 L 210.648438 221.582031 C 210.132812 221.261719 209.75 220.828125 209.5 220.269531 C 209.25 219.714844 209.183594 219.140625 209.292969 218.542969 L 215.828125 182.824219 C 215.933594 182.253906 216.183594 181.757812 216.582031 181.335938 C 216.980469 180.914062 217.460938 180.632812 218.023438 180.496094 C 218.585938 180.355469 219.140625 180.382812 219.691406 180.574219 C 220.238281 180.761719 220.691406 181.085938 221.046875 181.542969 L 248.085938 216.121094 C 248.597656 216.773438 248.796875 217.511719 248.683594 218.332031 L 242.195312 265.878906 C 242.144531 266.230469 242.039062 266.5625 241.867188 266.878906 C 241.699219 267.191406 241.480469 267.464844 241.214844 267.699219 C 240.945312 267.933594 240.644531 268.113281 240.308594 268.238281 C 239.976562 268.363281 239.632812 268.425781 239.277344 268.425781 Z M 229.480469 262.539062 L 236.703125 262.539062 L 242.675781 218.765625 L 220.441406 190.332031 L 215.449219 217.617188 L 226.574219 224.429688 C 226.992188 224.683594 227.324219 225.023438 227.574219 225.445312 C 227.824219 225.871094 227.957031 226.324219 227.976562 226.816406 Z M 229.480469 262.539062 " fill-opacity="1" fill-rule="nonzero"/><path fill="#016407" d="M 207.257812 127.871094 C 205.773438 127.871094 204.316406 127.675781 202.886719 127.277344 C 201.457031 126.878906 200.109375 126.296875 198.839844 125.53125 C 197.570312 124.765625 196.425781 123.839844 195.410156 122.761719 C 194.394531 121.679688 193.542969 120.484375 192.855469 119.171875 L 188.484375 110.78125 C 187.996094 109.847656 187.605469 108.875 187.308594 107.863281 C 187.011719 106.851562 186.816406 105.820312 186.71875 104.769531 C 186.625 103.71875 186.632812 102.671875 186.742188 101.621094 C 186.851562 100.574219 187.0625 99.546875 187.371094 98.539062 C 187.683594 97.53125 188.089844 96.5625 188.589844 95.632812 C 189.089844 94.707031 189.671875 93.835938 190.34375 93.019531 C 191.015625 92.207031 191.757812 91.464844 192.574219 90.796875 C 193.386719 90.125 194.261719 89.542969 195.191406 89.042969 C 196.121094 88.542969 197.089844 88.140625 198.097656 87.832031 C 199.105469 87.519531 200.136719 87.3125 201.183594 87.203125 C 202.234375 87.09375 203.285156 87.085938 204.335938 87.183594 C 205.386719 87.277344 206.417969 87.476562 207.429688 87.773438 C 208.441406 88.070312 209.414062 88.464844 210.351562 88.949219 C 211.285156 89.4375 212.167969 90.011719 212.988281 90.671875 C 213.8125 91.328125 214.566406 92.0625 215.246094 92.867188 C 215.925781 93.671875 216.523438 94.539062 217.035156 95.460938 L 221.609375 103.738281 C 222.378906 105.128906 222.933594 106.601562 223.277344 108.152344 C 223.460938 109.015625 223.574219 109.882812 223.617188 110.761719 C 223.660156 111.640625 223.632812 112.515625 223.535156 113.390625 C 223.433594 114.265625 223.265625 115.125 223.023438 115.972656 C 222.785156 116.820312 222.476562 117.640625 222.105469 118.4375 C 221.730469 119.234375 221.296875 119.992188 220.796875 120.71875 C 220.300781 121.445312 219.746094 122.125 219.136719 122.761719 C 218.527344 123.398438 217.871094 123.980469 217.167969 124.507812 C 216.464844 125.035156 215.722656 125.503906 214.945312 125.914062 L 214.792969 126 C 214.757812 126.019531 214.722656 126.039062 214.6875 126.058594 C 212.359375 127.265625 209.882812 127.871094 207.257812 127.871094 Z M 213.332031 123.445312 Z M 202.832031 93.003906 C 202.390625 93.007812 201.953125 93.035156 201.515625 93.09375 C 201.082031 93.152344 200.648438 93.238281 200.222656 93.347656 C 199.796875 93.460938 199.382812 93.601562 198.972656 93.769531 C 198.566406 93.933594 198.171875 94.125 197.785156 94.34375 C 197.402344 94.558594 197.035156 94.800781 196.683594 95.0625 C 196.332031 95.328125 195.996094 95.613281 195.679688 95.917969 C 195.363281 96.222656 195.070312 96.550781 194.796875 96.894531 C 194.519531 97.238281 194.269531 97.597656 194.042969 97.976562 C 193.8125 98.351562 193.609375 98.742188 193.433594 99.144531 C 193.253906 99.546875 193.101562 99.957031 192.976562 100.378906 C 192.851562 100.800781 192.753906 101.230469 192.683594 101.664062 C 192.613281 102.097656 192.570312 102.535156 192.554688 102.972656 C 192.539062 103.414062 192.554688 103.851562 192.59375 104.289062 C 192.636719 104.730469 192.707031 105.164062 192.804688 105.589844 C 192.902344 106.019531 193.023438 106.441406 193.175781 106.855469 C 193.328125 107.269531 193.503906 107.671875 193.707031 108.0625 L 198.078125 116.453125 C 198.390625 117.046875 198.757812 117.609375 199.179688 118.132812 C 199.605469 118.65625 200.074219 119.132812 200.589844 119.566406 C 201.105469 120 201.660156 120.378906 202.25 120.703125 C 202.839844 121.027344 203.457031 121.292969 204.097656 121.496094 C 204.738281 121.699219 205.394531 121.839844 206.0625 121.917969 C 206.734375 121.992188 207.402344 122.003906 208.074219 121.949219 C 208.746094 121.894531 209.40625 121.773438 210.054688 121.589844 C 210.703125 121.40625 211.328125 121.160156 211.925781 120.855469 L 212.074219 120.773438 C 212.109375 120.753906 212.148438 120.730469 212.183594 120.710938 C 212.683594 120.453125 213.15625 120.15625 213.605469 119.824219 C 214.054688 119.488281 214.476562 119.117188 214.863281 118.714844 C 215.253906 118.308594 215.609375 117.875 215.925781 117.414062 C 216.246094 116.953125 216.523438 116.46875 216.761719 115.960938 C 217.003906 115.453125 217.199219 114.929688 217.355469 114.390625 C 217.507812 113.851562 217.617188 113.304688 217.679688 112.746094 C 217.746094 112.191406 217.761719 111.632812 217.738281 111.070312 C 217.710938 110.511719 217.636719 109.957031 217.519531 109.410156 C 217.300781 108.417969 216.945312 107.476562 216.453125 106.589844 L 211.878906 98.3125 C 211.195312 97.074219 210.296875 96.019531 209.175781 95.15625 C 208.054688 94.289062 206.808594 93.683594 205.4375 93.335938 C 204.582031 93.117188 203.714844 93.003906 202.832031 93.003906 Z M 202.832031 93.003906 " fill-opacity="1" fill-rule="nonzero"/><path fill="#016407" d="M 332.648438 366.039062 L 260.90625 366.039062 C 260.515625 366.039062 260.140625 365.964844 259.78125 365.816406 C 259.417969 365.667969 259.101562 365.453125 258.824219 365.179688 C 258.546875 364.902344 258.335938 364.582031 258.1875 364.222656 C 258.035156 363.863281 257.960938 363.488281 257.960938 363.097656 L 257.960938 226.578125 C 257.960938 225.996094 257.988281 225.417969 258.042969 224.839844 C 258.101562 224.261719 258.183594 223.691406 258.296875 223.121094 C 258.410156 222.550781 258.550781 221.988281 258.71875 221.433594 C 258.886719 220.878906 259.082031 220.332031 259.300781 219.796875 C 259.523438 219.257812 259.773438 218.734375 260.046875 218.222656 C 260.320312 217.710938 260.617188 217.214844 260.9375 216.730469 C 261.261719 216.25 261.605469 215.78125 261.976562 215.332031 C 262.34375 214.886719 262.734375 214.457031 263.144531 214.046875 C 263.554688 213.636719 263.984375 213.246094 264.433594 212.878906 C 264.882812 212.507812 265.347656 212.164062 265.832031 211.84375 C 266.316406 211.519531 266.8125 211.222656 267.324219 210.949219 C 267.835938 210.675781 268.363281 210.429688 268.898438 210.207031 C 269.4375 209.984375 269.984375 209.789062 270.539062 209.621094 C 271.09375 209.453125 271.65625 209.316406 272.226562 209.203125 C 272.796875 209.089844 273.371094 209.003906 273.949219 208.949219 C 274.527344 208.894531 275.105469 208.867188 275.6875 208.867188 L 317.867188 208.867188 C 319.601562 208.867188 321.296875 209.113281 322.957031 209.613281 C 323.863281 209.886719 324.742188 210.230469 325.589844 210.644531 C 326.441406 211.0625 327.253906 211.539062 328.027344 212.085938 C 328.800781 212.628906 329.527344 213.230469 330.207031 213.890625 C 330.882812 214.550781 331.503906 215.257812 332.070312 216.015625 C 332.636719 216.777344 333.136719 217.574219 333.574219 218.414062 C 334.011719 219.25 334.382812 220.117188 334.679688 221.015625 C 334.980469 221.914062 335.207031 222.828125 335.359375 223.761719 C 335.511719 224.695312 335.589844 225.632812 335.59375 226.578125 L 335.59375 363.097656 C 335.59375 363.488281 335.519531 363.863281 335.371094 364.222656 C 335.222656 364.582031 335.007812 364.902344 334.730469 365.179688 C 334.457031 365.453125 334.136719 365.667969 333.777344 365.816406 C 333.414062 365.964844 333.039062 366.039062 332.648438 366.039062 Z M 263.851562 360.152344 L 329.703125 360.152344 L 329.703125 226.578125 C 329.703125 225.945312 329.648438 225.320312 329.546875 224.695312 C 329.445312 224.074219 329.292969 223.460938 329.09375 222.863281 C 328.894531 222.265625 328.648438 221.683594 328.355469 221.125 C 328.0625 220.566406 327.730469 220.03125 327.351562 219.527344 C 326.976562 219.019531 326.558594 218.546875 326.109375 218.105469 C 325.65625 217.664062 325.171875 217.265625 324.652344 216.902344 C 324.136719 216.539062 323.59375 216.21875 323.027344 215.941406 C 322.457031 215.664062 321.871094 215.433594 321.265625 215.25 C 320.160156 214.917969 319.027344 214.75 317.867188 214.753906 L 275.6875 214.753906 C 274.910156 214.75 274.140625 214.824219 273.375 214.976562 C 272.613281 215.125 271.871094 215.347656 271.152344 215.644531 C 270.433594 215.941406 269.75 216.304688 269.105469 216.734375 C 268.457031 217.167969 267.859375 217.65625 267.308594 218.207031 C 266.757812 218.757812 266.269531 219.355469 265.835938 220 C 265.40625 220.648438 265.042969 221.328125 264.746094 222.046875 C 264.449219 222.765625 264.226562 223.507812 264.074219 224.269531 C 263.925781 225.03125 263.851562 225.800781 263.851562 226.578125 Z M 263.851562 360.152344 " fill-opacity="1" fill-rule="nonzero"/><g clip-path="url(#b9f75ccfc9)"><path fill="#016407" d="M 283.257812 13.335938 L 283.257812 87.179688 L 271.722656 93.15625 L 271.722656 13.335938 C 271.726562 12.960938 271.765625 12.585938 271.839844 12.21875 C 271.917969 11.847656 272.027344 11.492188 272.175781 11.144531 C 272.320312 10.796875 272.5 10.46875 272.710938 10.15625 C 272.921875 9.84375 273.160156 9.554688 273.425781 9.289062 C 273.695312 9.023438 273.984375 8.789062 274.300781 8.578125 C 274.613281 8.371094 274.945312 8.195312 275.292969 8.050781 C 275.640625 7.910156 276 7.800781 276.371094 7.726562 C 276.738281 7.652344 277.113281 7.617188 277.492188 7.617188 C 277.867188 7.617188 278.242188 7.652344 278.609375 7.726562 C 278.980469 7.800781 279.339844 7.910156 279.6875 8.050781 C 280.035156 8.195312 280.367188 8.371094 280.679688 8.578125 C 280.996094 8.789062 281.285156 9.023438 281.554688 9.289062 C 281.820312 9.554688 282.058594 9.84375 282.269531 10.15625 C 282.480469 10.46875 282.660156 10.796875 282.804688 11.144531 C 282.953125 11.492188 283.0625 11.847656 283.140625 12.21875 C 283.214844 12.585938 283.253906 12.960938 283.257812 13.335938 Z M 283.257812 13.335938 " fill-opacity="1" fill-rule="nonzero"/></g><path fill="#016407" d="M 278.84375 107.449219 C 280.296875 104.582031 281.394531 101.582031 282.140625 98.453125 C 282.886719 95.324219 283.257812 92.152344 283.257812 88.9375 L 283.257812 211.808594 L 275.6875 211.808594 C 274.339844 211.808594 273.019531 211.988281 271.722656 212.34375 L 271.722656 117.464844 C 274.609375 114.488281 276.980469 111.152344 278.84375 107.449219 Z M 278.84375 107.449219 " fill-opacity="1" fill-rule="nonzero"/><path fill="#016407" d="M 345.613281 67.066406 L 283.257812 67.066406 C 282.867188 67.066406 282.492188 66.992188 282.132812 66.84375 C 281.769531 66.695312 281.453125 66.480469 281.175781 66.207031 C 280.898438 65.929688 280.6875 65.613281 280.535156 65.25 C 280.386719 64.890625 280.3125 64.515625 280.3125 64.125 L 280.3125 20.582031 C 280.3125 19.765625 280.601562 19.070312 281.183594 18.492188 C 281.761719 17.910156 282.460938 17.625 283.28125 17.640625 L 290.40625 17.699219 L 344.625 18.085938 C 345.210938 18.089844 345.78125 18.179688 346.339844 18.351562 C 346.898438 18.527344 347.421875 18.777344 347.90625 19.105469 C 348.390625 19.433594 348.816406 19.824219 349.1875 20.277344 C 349.554688 20.730469 349.851562 21.226562 350.074219 21.769531 C 350.296875 22.308594 350.433594 22.871094 350.492188 23.453125 C 350.546875 24.035156 350.515625 24.613281 350.402344 25.183594 C 350.285156 25.757812 350.089844 26.304688 349.8125 26.816406 C 349.539062 27.332031 349.191406 27.796875 348.777344 28.210938 L 334.964844 42.027344 C 334.945312 42.054688 334.945312 42.078125 334.964844 42.101562 L 349.800781 56.929688 C 350.21875 57.34375 350.566406 57.808594 350.84375 58.328125 C 351.121094 58.84375 351.316406 59.390625 351.433594 59.964844 C 351.546875 60.542969 351.578125 61.121094 351.519531 61.707031 C 351.464844 62.289062 351.324219 62.855469 351.097656 63.398438 C 350.875 63.9375 350.578125 64.4375 350.203125 64.890625 C 349.832031 65.347656 349.402344 65.738281 348.914062 66.0625 C 348.425781 66.390625 347.902344 66.640625 347.339844 66.808594 C 346.777344 66.980469 346.203125 67.066406 345.613281 67.066406 Z M 286.203125 61.183594 L 345.613281 61.183594 C 345.625 61.183594 345.636719 61.179688 345.648438 61.179688 C 345.644531 61.175781 345.660156 61.136719 345.660156 61.117188 C 345.65625 61.117188 345.648438 61.105469 345.632812 61.089844 L 330.796875 46.265625 C 330.519531 45.988281 330.273438 45.6875 330.058594 45.363281 C 329.839844 45.039062 329.65625 44.699219 329.507812 44.335938 C 329.359375 43.976562 329.246094 43.605469 329.171875 43.222656 C 329.09375 42.839844 329.058594 42.457031 329.058594 42.066406 C 329.058594 41.675781 329.09375 41.289062 329.171875 40.90625 C 329.246094 40.523438 329.359375 40.152344 329.507812 39.792969 C 329.65625 39.433594 329.839844 39.089844 330.058594 38.765625 C 330.273438 38.441406 330.519531 38.140625 330.796875 37.867188 L 344.609375 24.050781 C 344.617188 24.042969 344.628906 24.03125 344.636719 24.019531 C 344.625 24 344.613281 23.980469 344.597656 23.964844 L 290.359375 23.582031 L 286.203125 23.550781 Z M 286.203125 61.183594 " fill-opacity="1" fill-rule="nonzero"/><path fill="#016407" d="M 178.710938 202.144531 C 178.480469 202.144531 178.257812 202.121094 178.035156 202.066406 C 177.816406 202.015625 177.601562 201.9375 177.398438 201.839844 C 177.195312 201.738281 177.003906 201.613281 176.828125 201.46875 C 176.65625 201.324219 176.5 201.160156 176.359375 200.980469 C 176.222656 200.796875 176.109375 200.601562 176.015625 200.394531 C 175.925781 200.1875 175.859375 199.972656 175.816406 199.75 C 175.773438 199.523438 175.757812 199.300781 175.765625 199.074219 C 175.777344 198.847656 175.8125 198.621094 175.875 198.402344 L 194.980469 130.683594 C 195.210938 129.867188 195.707031 129.261719 196.460938 128.871094 L 281.902344 84.566406 C 282.125 84.449219 282.363281 84.363281 282.609375 84.308594 C 282.855469 84.25 283.105469 84.226562 283.359375 84.238281 C 283.609375 84.246094 283.859375 84.285156 284.101562 84.359375 C 284.34375 84.429688 284.574219 84.53125 284.789062 84.664062 C 285.003906 84.792969 285.199219 84.949219 285.375 85.132812 C 285.550781 85.3125 285.703125 85.515625 285.824219 85.734375 C 285.949219 85.957031 286.042969 86.1875 286.109375 86.433594 C 286.171875 86.675781 286.203125 86.925781 286.203125 87.179688 L 286.203125 88.9375 C 286.199219 92.382812 285.800781 95.78125 285 99.132812 C 284.203125 102.484375 283.027344 105.699219 281.476562 108.777344 C 279.484375 112.710938 276.960938 116.265625 273.902344 119.445312 C 270.847656 122.625 267.390625 125.285156 263.535156 127.429688 L 233.464844 144.121094 L 224.621094 173.847656 L 221.550781 184.191406 C 221.421875 184.625 221.207031 185.007812 220.898438 185.339844 C 220.59375 185.675781 220.230469 185.925781 219.8125 186.089844 L 179.796875 201.941406 C 179.445312 202.078125 179.085938 202.144531 178.710938 202.144531 Z M 200.304688 133.507812 L 183.160156 194.273438 L 216.308594 181.144531 L 218.972656 172.171875 L 228.160156 141.292969 C 228.386719 140.527344 228.851562 139.949219 229.550781 139.558594 L 260.671875 122.28125 C 264.011719 120.425781 267.007812 118.121094 269.65625 115.367188 C 272.300781 112.613281 274.488281 109.535156 276.214844 106.125 C 278.445312 101.703125 279.765625 97.023438 280.179688 92.089844 Z M 200.304688 133.507812 " fill-opacity="1" fill-rule="nonzero"/></svg>