<svg xmlns="http://www.w3.org/2000/svg" xmlns:xlink="http://www.w3.org/1999/xlink" width="500" zoomAndPan="magnify" viewBox="0 0 375 374.999991" height="500" preserveAspectRatio="xMidYMid meet" version="1.0"><defs><clipPath id="196bc2a125"><path d="M 15.480469 22 L 355 22 L 355 361.660156 L 15.480469 361.660156 Z M 15.480469 22 " clip-rule="nonzero"/></clipPath><clipPath id="78ada6b820"><path d="M 175 10 L 367.980469 10 L 367.980469 202 L 175 202 Z M 175 10 " clip-rule="nonzero"/></clipPath></defs><rect x="-37.5" width="450" fill="#ffffff" y="-37.499999" height="449.999989" fill-opacity="1"/><rect x="-37.5" width="450" fill="#ffffff" y="-37.499999" height="449.999989" fill-opacity="1"/><path fill="#016407" d="M 184.738281 143.378906 C 189.984375 143.378906 194.242188 139.117188 194.242188 133.875 C 194.242188 128.625 189.984375 124.367188 184.738281 124.367188 C 147.449219 124.367188 117.117188 154.707031 117.117188 192.011719 C 117.117188 229.320312 147.449219 259.65625 184.738281 259.65625 C 222.03125 259.65625 252.359375 229.320312 252.359375 192.011719 C 252.359375 186.765625 248.101562 182.503906 242.855469 182.503906 C 237.613281 182.503906 233.355469 186.765625 233.355469 192.011719 C 233.355469 218.828125 211.542969 240.644531 184.738281 240.644531 C 157.9375 240.644531 136.125 218.828125 136.125 192.011719 C 136.125 165.199219 157.9375 143.378906 184.738281 143.378906 " fill-opacity="1" fill-rule="nonzero"/><path fill="#016407" d="M 184.738281 75.59375 C 120.5625 75.59375 68.363281 127.820312 68.363281 192.011719 C 68.363281 256.210938 120.5625 308.441406 184.738281 308.441406 C 248.914062 308.441406 301.113281 256.210938 301.113281 192.011719 C 301.113281 186.765625 296.855469 182.503906 291.613281 182.503906 C 286.367188 182.503906 282.109375 186.765625 282.109375 192.011719 C 282.109375 245.730469 238.425781 289.429688 184.738281 289.429688 C 131.050781 289.429688 87.367188 245.730469 87.367188 192.011719 C 87.367188 138.304688 131.050781 94.605469 184.738281 94.605469 C 189.984375 94.605469 194.242188 90.351562 194.242188 85.101562 C 194.242188 79.847656 189.984375 75.59375 184.738281 75.59375 " fill-opacity="1" fill-rule="nonzero"/><g clip-path="url(#196bc2a125)"><path fill="#016407" d="M 344.542969 182.503906 C 339.300781 182.503906 335.042969 186.765625 335.042969 192.011719 C 335.042969 274.921875 267.617188 342.382812 184.738281 342.382812 C 101.859375 342.382812 34.4375 274.921875 34.4375 192.011719 C 34.4375 109.105469 101.859375 41.65625 184.738281 41.65625 C 189.984375 41.65625 194.242188 37.398438 194.242188 32.148438 C 194.242188 26.894531 189.984375 22.640625 184.738281 22.640625 C 91.382812 22.640625 15.433594 98.621094 15.433594 192.011719 C 15.433594 285.417969 91.382812 361.394531 184.738281 361.394531 C 278.097656 361.394531 354.046875 285.417969 354.046875 192.011719 C 354.046875 186.765625 349.789062 182.503906 344.542969 182.503906 " fill-opacity="1" fill-rule="nonzero"/></g><g clip-path="url(#78ada6b820)"><path fill="#016407" d="M 308.332031 109.492188 L 287.078125 104.40625 L 317.859375 73.609375 L 339.117188 78.695312 Z M 268.546875 69.703125 L 299.339844 38.894531 L 304.167969 59.097656 L 273.378906 89.902344 Z M 366.996094 70.804688 C 366.070312 67.496094 363.410156 64.945312 360.058594 64.144531 L 322.792969 55.230469 L 313.890625 17.941406 C 313.089844 14.589844 310.535156 11.9375 307.230469 11 C 303.886719 10.097656 300.363281 11.007812 297.925781 13.421875 L 251.351562 60.011719 C 249.007812 62.347656 248.058594 65.730469 248.820312 68.945312 L 257.601562 105.683594 L 178.019531 185.289062 C 174.308594 189.003906 174.308594 195.019531 178.019531 198.734375 C 179.878906 200.589844 182.304688 201.519531 184.738281 201.519531 C 187.175781 201.519531 189.601562 200.589844 191.457031 198.734375 L 270.230469 119.9375 L 309.085938 129.230469 C 309.816406 129.402344 310.5625 129.484375 311.292969 129.484375 C 313.789062 129.484375 316.210938 128.511719 318.007812 126.699219 L 364.570312 80.113281 C 367.007812 77.683594 367.9375 74.121094 366.996094 70.804688 " fill-opacity="1" fill-rule="nonzero"/></g></svg>