<svg xmlns="http://www.w3.org/2000/svg" xmlns:xlink="http://www.w3.org/1999/xlink" width="500" zoomAndPan="magnify" viewBox="0 0 375 374.999991" height="500" preserveAspectRatio="xMidYMid meet" version="1.0"><defs><clipPath id="5211114aad"><path d="M 210 149 L 355.628906 149 L 355.628906 364.328125 L 210 364.328125 Z M 210 149 " clip-rule="nonzero"/></clipPath><clipPath id="9f3f3ea506"><path d="M 19 149 L 165 149 L 165 364.328125 L 19 364.328125 Z M 19 149 " clip-rule="nonzero"/></clipPath></defs><path fill="#016407" d="M 145.226562 126.359375 C 145.226562 122.117188 141.804688 118.695312 137.585938 118.695312 L 91.675781 118.695312 C 87.457031 118.695312 84.019531 122.117188 84.019531 126.359375 C 84.019531 130.585938 87.457031 134.011719 91.675781 134.011719 L 137.585938 134.011719 C 141.804688 134.011719 145.226562 130.585938 145.226562 126.359375 " fill-opacity="1" fill-rule="nonzero"/><path fill="#016407" d="M 153.113281 210.15625 C 153.964844 210.46875 154.847656 210.613281 155.714844 210.613281 C 158.839844 210.613281 161.785156 208.699219 162.914062 205.585938 C 164.351562 201.605469 162.308594 197.214844 158.332031 195.773438 C 137.765625 188.253906 121.683594 172.164062 114.1875 151.589844 C 112.75 147.625 108.363281 145.578125 104.390625 147.019531 C 100.414062 148.460938 98.367188 152.867188 99.824219 156.832031 C 108.855469 181.667969 128.277344 201.113281 153.113281 210.15625 " fill-opacity="1" fill-rule="nonzero"/><path fill="#016407" d="M 104.371094 105.785156 C 105.222656 106.097656 106.105469 106.242188 106.972656 106.242188 C 110.097656 106.242188 113.042969 104.308594 114.171875 101.199219 C 121.632812 80.621094 137.699219 64.5 158.265625 56.980469 C 162.242188 55.523438 164.269531 51.132812 162.832031 47.152344 C 161.359375 43.171875 156.972656 41.15625 153.015625 42.582031 C 128.195312 51.675781 108.789062 71.121094 99.773438 95.972656 C 98.335938 99.9375 100.398438 104.34375 104.371094 105.785156 " fill-opacity="1" fill-rule="nonzero"/><path fill="#016407" d="M 80.976562 39.746094 C 82.398438 40.960938 84.148438 41.550781 85.882812 41.550781 C 88.058594 41.550781 90.238281 40.617188 91.742188 38.8125 C 94.457031 35.570312 94.046875 30.738281 90.808594 28.019531 L 73.222656 13.242188 C 69.980469 10.523438 65.15625 10.949219 62.457031 14.191406 C 59.722656 17.433594 60.148438 22.269531 63.386719 24.972656 L 80.976562 39.746094 " fill-opacity="1" fill-rule="nonzero"/><path fill="#016407" d="M 309.71875 112.664062 C 309.71875 116.910156 313.140625 120.332031 317.359375 120.332031 L 340.316406 120.332031 C 344.535156 120.332031 347.972656 116.910156 347.972656 112.664062 C 347.972656 108.4375 344.535156 105.015625 340.316406 105.015625 L 317.359375 105.015625 C 313.140625 105.015625 309.71875 108.4375 309.71875 112.664062 " fill-opacity="1" fill-rule="nonzero"/><path fill="#016407" d="M 302.800781 73.363281 C 303.929688 76.476562 306.855469 78.410156 309.980469 78.410156 C 310.847656 78.410156 311.734375 78.261719 312.601562 77.933594 L 334.164062 70.085938 C 338.140625 68.644531 340.183594 64.238281 338.746094 60.273438 C 337.289062 56.292969 332.9375 54.246094 328.945312 55.6875 L 307.363281 63.550781 C 303.40625 64.992188 301.34375 69.382812 302.800781 73.363281 " fill-opacity="1" fill-rule="nonzero"/><path fill="#016407" d="M 288.746094 41.550781 C 290.464844 41.550781 292.214844 40.960938 293.652344 39.746094 L 311.226562 24.972656 C 314.464844 22.269531 314.890625 17.433594 312.15625 14.191406 C 309.457031 10.949219 304.648438 10.523438 301.390625 13.242188 L 283.804688 28.019531 C 280.566406 30.738281 280.15625 35.570312 282.871094 38.8125 C 284.375 40.617188 286.554688 41.550781 288.746094 41.550781 " fill-opacity="1" fill-rule="nonzero"/><path fill="#016407" d="M 221.730469 126.359375 C 221.730469 130.585938 225.148438 134.011719 229.386719 134.011719 L 275.296875 134.011719 C 279.519531 134.011719 282.9375 130.585938 282.9375 126.359375 C 282.9375 122.117188 279.519531 118.695312 275.296875 118.695312 L 229.386719 118.695312 C 225.148438 118.695312 221.730469 122.117188 221.730469 126.359375 " fill-opacity="1" fill-rule="nonzero"/><path fill="#016407" d="M 183.476562 164.664062 C 179.257812 164.664062 175.835938 168.085938 175.835938 172.3125 L 175.835938 218.28125 C 175.835938 222.523438 179.257812 225.949219 183.476562 225.949219 C 187.714844 225.949219 191.136719 222.523438 191.136719 218.28125 L 191.136719 172.3125 C 191.136719 168.085938 187.714844 164.664062 183.476562 164.664062 " fill-opacity="1" fill-rule="nonzero"/><path fill="#016407" d="M 208.625 56.949219 C 229.191406 64.453125 245.289062 80.554688 252.765625 101.117188 C 253.894531 104.226562 256.839844 106.160156 259.964844 106.160156 C 260.816406 106.160156 261.71875 106.015625 262.566406 105.6875 C 266.542969 104.246094 268.589844 99.855469 267.148438 95.875 C 258.117188 71.039062 238.695312 51.609375 213.859375 42.550781 C 209.917969 41.109375 205.5 43.15625 204.058594 47.136719 C 202.605469 51.101562 204.648438 55.507812 208.625 56.949219 " fill-opacity="1" fill-rule="nonzero"/><path fill="#016407" d="M 213.941406 210.125 C 238.761719 201.046875 258.167969 181.601562 267.179688 156.75 C 268.621094 152.769531 266.558594 148.378906 262.601562 146.921875 C 258.640625 145.527344 254.238281 147.542969 252.800781 151.523438 C 245.339844 172.101562 229.257812 188.21875 208.707031 195.738281 C 204.730469 197.179688 202.6875 201.589844 204.140625 205.550781 C 205.269531 208.664062 208.199219 210.597656 211.324219 210.597656 C 212.207031 210.597656 213.089844 210.433594 213.941406 210.125 " fill-opacity="1" fill-rule="nonzero"/><path fill="#016407" d="M 183.476562 26.773438 C 179.257812 26.773438 175.835938 30.195312 175.835938 34.421875 L 175.835938 80.390625 C 175.835938 84.636719 179.257812 88.058594 183.476562 88.058594 C 187.714844 88.058594 191.136719 84.636719 191.136719 80.390625 L 191.136719 34.421875 C 191.136719 30.195312 187.714844 26.773438 183.476562 26.773438 " fill-opacity="1" fill-rule="nonzero"/><g clip-path="url(#5211114aad)"><path fill="#016407" d="M 354.746094 153.226562 C 354.269531 152.246094 353.160156 150.492188 351.066406 149.789062 C 350.3125 149.542969 349.527344 149.394531 348.742188 149.34375 C 346.238281 149.132812 343.570312 151.015625 342.179688 153.832031 L 313.238281 205.632812 C 317.035156 221.851562 296.007812 257.402344 289.398438 268.019531 C 287.960938 270.34375 285.457031 271.621094 282.90625 271.621094 C 281.515625 271.621094 280.125 271.246094 278.863281 270.476562 C 275.28125 268.230469 274.183594 263.496094 276.425781 259.910156 C 289.15625 239.449219 298.9375 217.265625 298.496094 210.320312 C 297.597656 209.582031 294.898438 207.730469 290.546875 207.566406 C 289.726562 207.503906 284.179688 209.941406 275.671875 221.476562 L 248.726562 255.304688 C 248.070312 256.125 247.238281 256.8125 246.304688 257.304688 C 245.945312 257.5 210.246094 276.667969 210.246094 307.84375 C 210.246094 333.84375 215.085938 355.203125 217.527344 364.328125 L 274.855469 364.328125 L 267.523438 327.535156 C 267.035156 325.027344 267.820312 322.441406 269.601562 320.621094 L 301.441406 288.660156 C 309.441406 280.632812 315.691406 270.738281 319.472656 260.054688 L 355.15625 159.746094 C 355.890625 157.699219 355.742188 155.257812 354.746094 153.226562 " fill-opacity="1" fill-rule="nonzero"/></g><path fill="#016407" d="M 34.296875 120.332031 L 57.253906 120.332031 C 61.472656 120.332031 64.894531 116.910156 64.894531 112.664062 C 64.894531 108.4375 61.472656 105.015625 57.253906 105.015625 L 34.296875 105.015625 C 30.078125 105.015625 26.65625 108.4375 26.65625 112.664062 C 26.65625 116.910156 30.078125 120.332031 34.296875 120.332031 " fill-opacity="1" fill-rule="nonzero"/><path fill="#016407" d="M 40.449219 70.085938 L 62.015625 77.933594 C 62.882812 78.261719 63.765625 78.410156 64.632812 78.410156 C 67.757812 78.410156 70.683594 76.476562 71.8125 73.363281 C 73.269531 69.382812 71.207031 64.992188 67.25 63.550781 L 45.683594 55.6875 C 41.691406 54.246094 37.324219 56.292969 35.867188 60.273438 C 34.429688 64.238281 36.472656 68.644531 40.449219 70.085938 " fill-opacity="1" fill-rule="nonzero"/><path fill="#016407" d="M 183.476562 118.695312 C 179.257812 118.695312 175.835938 122.132812 175.835938 126.359375 C 175.835938 130.585938 179.257812 134.011719 183.476562 134.011719 C 187.699219 134.011719 191.136719 130.585938 191.136719 126.359375 C 191.136719 122.132812 187.699219 118.695312 183.476562 118.695312 " fill-opacity="1" fill-rule="nonzero"/><g clip-path="url(#9f3f3ea506)"><path fill="#016407" d="M 128.292969 257.320312 C 127.34375 256.828125 126.507812 256.140625 125.855469 255.304688 L 99.070312 221.707031 C 90.464844 210.023438 85.589844 207.535156 84.070312 207.566406 C 79.714844 207.730469 77.03125 209.566406 76.101562 210.320312 C 75.660156 217.265625 85.441406 239.449219 98.171875 259.910156 C 100.414062 263.496094 99.316406 268.230469 95.734375 270.476562 C 94.472656 271.246094 93.066406 271.621094 91.691406 271.621094 C 89.140625 271.621094 86.636719 270.34375 85.199219 268.019531 C 78.585938 257.386719 57.578125 221.851562 61.375 205.652344 L 32.613281 154.160156 C 31.027344 151.015625 28.621094 149.3125 25.90625 149.34375 C 25.070312 149.394531 24.300781 149.542969 23.53125 149.789062 C 21.453125 150.492188 20.34375 152.246094 19.867188 153.226562 C 18.886719 155.257812 18.722656 157.699219 19.457031 159.746094 L 55.125 260.054688 C 58.921875 270.738281 65.15625 280.632812 73.140625 288.660156 L 104.976562 320.621094 C 106.777344 322.441406 107.5625 325.027344 107.070312 327.535156 L 99.742188 364.328125 L 157.054688 364.328125 C 159.492188 355.203125 164.335938 333.84375 164.335938 307.84375 C 164.335938 276.503906 128.652344 257.5 128.292969 257.320312 " fill-opacity="1" fill-rule="nonzero"/></g></svg>