<svg xmlns="http://www.w3.org/2000/svg" xmlns:xlink="http://www.w3.org/1999/xlink" width="500" zoomAndPan="magnify" viewBox="0 0 375 374.999991" height="500" preserveAspectRatio="xMidYMid meet" version="1.0"><rect x="-37.5" width="450" fill="#ffffff" y="-37.499999" height="449.999989" fill-opacity="1"/><rect x="-37.5" width="450" fill="#ffffff" y="-37.499999" height="449.999989" fill-opacity="1"/><path fill="#016407" d="M 367.21875 183.222656 C 366.097656 181.925781 356.207031 170.636719 339.75 156.355469 C 339.582031 155.515625 339.429688 154.660156 339.242188 153.828125 L 337.289062 154.261719 C 333.410156 150.953125 329.230469 147.527344 324.714844 144.035156 L 335.683594 140.558594 C 334.316406 136.253906 332.757812 131.976562 331.03125 127.84375 L 319.074219 132.8125 C 320.382812 135.941406 321.507812 139.183594 322.597656 142.429688 C 289.851562 117.507812 241.8125 90.425781 187.5625 90.425781 C 133.316406 90.425781 85.285156 117.5 52.535156 142.421875 C 53.589844 139.253906 54.691406 136.070312 55.976562 132.960938 L 44.015625 128.019531 C 42.28125 132.195312 40.730469 136.472656 39.375 140.742188 L 50.238281 144.164062 C 45.777344 147.617188 41.65625 151 37.824219 154.265625 L 35.875 153.839844 C 35.695312 154.671875 35.542969 155.519531 35.375 156.355469 C 18.917969 170.636719 9.027344 181.925781 7.90625 183.222656 C 5.808594 185.648438 5.808594 189.253906 7.90625 191.679688 C 9.027344 192.976562 18.917969 204.265625 35.375 218.546875 C 35.542969 219.386719 35.695312 220.234375 35.875 221.0625 L 37.824219 220.636719 C 41.707031 223.941406 45.886719 227.371094 50.410156 230.867188 L 39.441406 234.34375 C 40.808594 238.648438 42.367188 242.925781 44.09375 247.058594 L 56.050781 242.089844 C 54.742188 238.960938 53.617188 235.71875 52.527344 232.472656 C 85.273438 257.386719 133.3125 284.472656 187.5625 284.472656 C 241.808594 284.472656 289.839844 257.394531 322.589844 232.472656 C 321.535156 235.640625 320.433594 238.824219 319.148438 241.9375 L 331.109375 246.878906 C 332.84375 242.699219 334.394531 238.421875 335.75 234.15625 L 324.886719 230.734375 C 329.339844 227.285156 333.464844 223.902344 337.296875 220.644531 L 339.25 221.074219 C 339.4375 220.234375 339.582031 219.386719 339.753906 218.546875 C 356.214844 204.265625 366.105469 192.976562 367.222656 191.679688 C 369.316406 189.246094 369.316406 185.648438 367.21875 183.222656 Z M 265.230469 187.449219 C 265.230469 233.8125 230.390625 271.535156 187.5625 271.535156 C 144.734375 271.535156 109.894531 233.8125 109.894531 187.449219 C 109.894531 141.085938 144.734375 103.363281 187.5625 103.363281 C 230.390625 103.363281 265.230469 141.085938 265.230469 187.449219 Z M 21.601562 187.449219 C 33.976562 174.445312 74.671875 134.824219 127.523438 114.972656 C 108.820312 132.753906 96.949219 158.613281 96.949219 187.449219 C 96.949219 216.28125 108.820312 242.144531 127.53125 259.925781 C 74.671875 240.074219 33.984375 200.449219 21.601562 187.449219 Z M 247.59375 259.925781 C 266.304688 242.144531 278.175781 216.28125 278.175781 187.449219 C 278.175781 158.613281 266.304688 132.753906 247.59375 114.972656 C 300.453125 134.824219 341.140625 174.445312 353.523438 187.449219 C 341.140625 200.449219 300.453125 240.074219 247.59375 259.925781 Z M 247.59375 259.925781 " fill-opacity="1" fill-rule="nonzero"/><path fill="#016407" d="M 144.667969 51.726562 L 140.773438 39.386719 C 136.507812 40.730469 132.230469 42.289062 128.046875 44.023438 L 133.007812 55.976562 C 136.839844 54.382812 140.765625 52.957031 144.667969 51.726562 Z M 144.667969 51.726562 " fill-opacity="1" fill-rule="nonzero"/><path fill="#016407" d="M 193.683594 45.277344 L 194.230469 32.355469 C 189.722656 32.167969 185.167969 32.171875 180.695312 32.367188 L 181.25 45.289062 C 185.375 45.109375 189.570312 45.109375 193.683594 45.277344 Z M 193.683594 45.277344 " fill-opacity="1" fill-rule="nonzero"/><path fill="#016407" d="M 168.894531 46.359375 L 167.199219 33.539062 C 162.726562 34.125 158.234375 34.914062 153.859375 35.878906 L 156.65625 48.511719 C 160.675781 47.617188 164.785156 46.902344 168.894531 46.359375 Z M 168.894531 46.359375 " fill-opacity="1" fill-rule="nonzero"/><path fill="#016407" d="M 121.777344 61.207031 L 115.769531 49.753906 C 111.757812 51.847656 107.816406 54.132812 104.054688 56.53125 L 111.019531 67.4375 C 114.476562 65.226562 118.09375 63.136719 121.777344 61.207031 Z M 121.777344 61.207031 " fill-opacity="1" fill-rule="nonzero"/><path fill="#016407" d="M 100.859375 74.550781 L 92.96875 64.292969 C 89.382812 67.050781 85.894531 69.980469 82.585938 73.011719 L 91.351562 82.539062 C 94.378906 79.765625 97.578125 77.074219 100.859375 74.550781 Z M 100.859375 74.550781 " fill-opacity="1" fill-rule="nonzero"/><path fill="#016407" d="M 82.578125 91.316406 L 73.03125 82.574219 C 69.992188 85.890625 67.058594 89.378906 64.316406 92.949219 L 74.578125 100.832031 C 77.105469 97.558594 79.789062 94.351562 82.578125 91.316406 Z M 82.578125 91.316406 " fill-opacity="1" fill-rule="nonzero"/><path fill="#016407" d="M 67.449219 110.988281 L 56.535156 104.027344 C 54.128906 107.800781 51.835938 111.738281 49.746094 115.75 L 61.222656 121.738281 C 63.144531 118.050781 65.246094 114.441406 67.449219 110.988281 Z M 67.449219 110.988281 " fill-opacity="1" fill-rule="nonzero"/><path fill="#016407" d="M 292.394531 72.898438 C 289.074219 69.855469 285.582031 66.925781 282.015625 64.191406 L 274.136719 74.460938 C 277.414062 76.972656 280.617188 79.65625 283.664062 82.429688 Z M 292.394531 72.898438 " fill-opacity="1" fill-rule="nonzero"/><path fill="#016407" d="M 221.070312 35.839844 C 216.6875 34.882812 212.203125 34.09375 207.722656 33.519531 L 206.054688 46.339844 C 210.15625 46.875 214.273438 47.59375 218.285156 48.472656 Z M 221.070312 35.839844 " fill-opacity="1" fill-rule="nonzero"/><path fill="#016407" d="M 310.699219 92.8125 C 307.949219 89.242188 305.015625 85.761719 301.976562 82.449219 L 292.441406 91.207031 C 295.230469 94.242188 297.921875 97.4375 300.441406 100.710938 Z M 310.699219 92.8125 " fill-opacity="1" fill-rule="nonzero"/><path fill="#016407" d="M 313.828125 121.589844 L 325.289062 115.574219 C 323.1875 111.578125 320.894531 107.628906 318.488281 103.871094 L 307.585938 110.84375 C 309.800781 114.300781 311.898438 117.914062 313.828125 121.589844 Z M 313.828125 121.589844 " fill-opacity="1" fill-rule="nonzero"/><path fill="#016407" d="M 270.921875 56.441406 C 267.109375 54.015625 263.167969 51.734375 259.1875 49.664062 L 253.207031 61.132812 C 256.851562 63.03125 260.46875 65.117188 263.957031 67.339844 Z M 270.921875 56.441406 " fill-opacity="1" fill-rule="nonzero"/><path fill="#016407" d="M 246.90625 43.945312 C 242.765625 42.222656 238.472656 40.671875 234.15625 39.3125 L 230.273438 51.65625 C 234.230469 52.890625 238.152344 54.320312 241.9375 55.890625 Z M 246.90625 43.945312 " fill-opacity="1" fill-rule="nonzero"/><path fill="#016407" d="M 104.203125 318.453125 C 108.015625 320.878906 111.957031 323.164062 115.9375 325.234375 L 121.917969 313.765625 C 118.273438 311.863281 114.65625 309.78125 111.167969 307.554688 Z M 104.203125 318.453125 " fill-opacity="1" fill-rule="nonzero"/><path fill="#016407" d="M 206.230469 328.539062 L 207.925781 341.359375 C 212.398438 340.769531 216.890625 339.980469 221.265625 339.015625 L 218.46875 326.382812 C 214.449219 327.277344 210.339844 327.996094 206.230469 328.539062 Z M 206.230469 328.539062 " fill-opacity="1" fill-rule="nonzero"/><path fill="#016407" d="M 230.457031 323.167969 L 234.351562 335.511719 C 238.617188 334.164062 242.894531 332.605469 247.078125 330.875 L 242.117188 318.921875 C 238.285156 320.511719 234.359375 321.941406 230.457031 323.167969 Z M 230.457031 323.167969 " fill-opacity="1" fill-rule="nonzero"/><path fill="#016407" d="M 253.347656 313.6875 L 259.355469 325.144531 C 263.367188 323.046875 267.308594 320.761719 271.070312 318.363281 L 264.105469 307.457031 C 260.648438 309.671875 257.03125 311.761719 253.347656 313.6875 Z M 253.347656 313.6875 " fill-opacity="1" fill-rule="nonzero"/><path fill="#016407" d="M 292.546875 283.578125 L 302.09375 292.324219 C 305.132812 289.003906 308.066406 285.519531 310.808594 281.949219 L 300.546875 274.0625 C 298.019531 277.335938 295.335938 280.542969 292.546875 283.578125 Z M 292.546875 283.578125 " fill-opacity="1" fill-rule="nonzero"/><path fill="#016407" d="M 307.675781 263.910156 L 318.589844 270.867188 C 320.996094 267.097656 323.289062 263.15625 325.378906 259.148438 L 313.902344 253.160156 C 311.980469 256.84375 309.878906 260.453125 307.675781 263.910156 Z M 307.675781 263.910156 " fill-opacity="1" fill-rule="nonzero"/><path fill="#016407" d="M 274.265625 300.34375 L 282.15625 310.601562 C 285.742188 307.847656 289.230469 304.917969 292.539062 301.882812 L 283.773438 292.355469 C 280.746094 295.128906 277.546875 297.820312 274.265625 300.34375 Z M 274.265625 300.34375 " fill-opacity="1" fill-rule="nonzero"/><path fill="#016407" d="M 61.296875 253.308594 L 49.835938 259.324219 C 51.9375 263.320312 54.230469 267.265625 56.636719 271.023438 L 67.539062 264.050781 C 65.324219 260.597656 63.226562 256.980469 61.296875 253.308594 Z M 61.296875 253.308594 " fill-opacity="1" fill-rule="nonzero"/><path fill="#016407" d="M 64.425781 282.089844 C 67.175781 285.660156 70.109375 289.140625 73.148438 292.453125 L 82.683594 283.695312 C 79.894531 280.660156 77.203125 277.464844 74.683594 274.191406 Z M 64.425781 282.089844 " fill-opacity="1" fill-rule="nonzero"/><path fill="#016407" d="M 82.730469 302 C 86.050781 305.039062 89.542969 307.96875 93.109375 310.707031 L 100.988281 300.433594 C 97.710938 297.925781 94.507812 295.238281 91.460938 292.464844 Z M 82.730469 302 " fill-opacity="1" fill-rule="nonzero"/><path fill="#016407" d="M 154.054688 339.054688 C 158.4375 340.011719 162.921875 340.800781 167.402344 341.378906 L 169.070312 328.558594 C 164.96875 328.019531 160.851562 327.304688 156.839844 326.421875 Z M 154.054688 339.054688 " fill-opacity="1" fill-rule="nonzero"/><path fill="#016407" d="M 128.21875 330.949219 C 132.359375 332.671875 136.652344 334.222656 140.96875 335.582031 L 144.851562 323.242188 C 140.894531 322.003906 136.972656 320.574219 133.1875 319.003906 Z M 128.21875 330.949219 " fill-opacity="1" fill-rule="nonzero"/><path fill="#016407" d="M 181.441406 329.617188 L 180.894531 342.542969 C 183.109375 342.640625 185.328125 342.683594 187.5625 342.683594 C 189.867188 342.683594 192.15625 342.632812 194.429688 342.535156 L 193.875 329.613281 C 189.75 329.78125 185.554688 329.792969 181.441406 329.617188 Z M 181.441406 329.617188 " fill-opacity="1" fill-rule="nonzero"/><path fill="#016407" d="M 133.886719 217.894531 L 161.671875 190.125 L 182.988281 211.425781 C 185.515625 213.953125 189.609375 213.953125 192.136719 211.425781 L 232.871094 170.722656 L 232.871094 187.449219 L 245.8125 187.449219 L 245.8125 155.105469 C 245.8125 151.53125 242.921875 148.640625 239.34375 148.640625 L 206.980469 148.640625 L 206.980469 161.574219 L 223.71875 161.574219 L 187.5625 197.707031 L 166.25 176.40625 C 163.71875 173.878906 159.628906 173.878906 157.097656 176.40625 L 124.734375 208.746094 Z M 133.886719 217.894531 " fill-opacity="1" fill-rule="nonzero"/><path fill="#016407" d="M 181.089844 226.257812 L 194.035156 226.257812 L 194.035156 239.195312 L 181.089844 239.195312 Z M 181.089844 226.257812 " fill-opacity="1" fill-rule="nonzero"/><path fill="#016407" d="M 206.980469 226.257812 L 219.925781 226.257812 L 219.925781 239.195312 L 206.980469 239.195312 Z M 206.980469 226.257812 " fill-opacity="1" fill-rule="nonzero"/><path fill="#016407" d="M 155.199219 226.257812 L 168.144531 226.257812 L 168.144531 239.195312 L 155.199219 239.195312 Z M 155.199219 226.257812 " fill-opacity="1" fill-rule="nonzero"/></svg>